<svg xmlns="http://www.w3.org/2000/svg" width="44.702" height="44.702" viewBox="0 0 44.702 44.702"><defs><style>.a{fill:#00d9b8;}.b{fill:#fff;}</style></defs><g transform="translate(109 22.351)"><g transform="translate(-109 -22.351)"><path class="a" d="M23.135,7.5,15.63,0,10.871,4.758,23.135,17.022,35.4,4.758,30.64,0Z" transform="translate(-0.784)"/><path class="a" d="M23.135,39.349l7.5,7.5L35.4,42.1,23.135,29.832,10.871,42.1l4.759,4.758Z" transform="translate(-0.784 -2.152)"/><path class="a" d="M39.349,23.135l7.5-7.5L42.1,10.871,29.832,23.135,42.1,35.4l4.758-4.758Z" transform="translate(-2.152 -0.784)"/><path class="b" d="M7.5,23.135,0,30.64,4.758,35.4,17.021,23.135,4.758,10.871,0,15.63Z" transform="translate(0 -0.784)"/></g></g></svg>